<?xml version="1.0" encoding="UTF-8" standalone="no"?>
<svg
   xmlns:dc="http://purl.org/dc/elements/1.1/"
   xmlns:cc="http://creativecommons.org/ns#"
   xmlns:rdf="http://www.w3.org/1999/02/22-rdf-syntax-ns#"
   xmlns:svg="http://www.w3.org/2000/svg"
   xmlns="http://www.w3.org/2000/svg"
   xmlns:sodipodi="http://sodipodi.sourceforge.net/DTD/sodipodi-0.dtd"
   xmlns:inkscape="http://www.inkscape.org/namespaces/inkscape"
   width="502pt"
   height="364pt"
   viewBox="0 0 502 364"
   version="1.2"
   id="svg145"
   sodipodi:docname="Plot_integrate_CSFRD.svg"
   inkscape:version="0.92.2 2405546, 2018-03-11">
  <metadata
     id="metadata151">
    <rdf:RDF>
      <cc:Work
         rdf:about="">
        <dc:format>image/svg+xml</dc:format>
        <dc:type
           rdf:resource="http://purl.org/dc/dcmitype/StillImage" />
        <dc:title></dc:title>
      </cc:Work>
    </rdf:RDF>
  </metadata>
  <defs
     id="defs149" />
  <sodipodi:namedview
     pagecolor="#ffffff"
     bordercolor="#666666"
     borderopacity="1"
     objecttolerance="10"
     gridtolerance="10"
     guidetolerance="10"
     inkscape:pageopacity="0"
     inkscape:pageshadow="2"
     inkscape:window-width="1359"
     inkscape:window-height="750"
     id="namedview147"
     showgrid="false"
     inkscape:zoom="0.6"
     inkscape:cx="-9.2978399"
     inkscape:cy="242.66667"
     inkscape:window-x="0"
     inkscape:window-y="0"
     inkscape:window-maximized="0"
     inkscape:current-layer="svg145" />
  <g
     id="surface124">
    <path
       style="fill:none;stroke-width:10;stroke-linecap:butt;stroke-linejoin:round;stroke:rgb(0%,0%,0%);stroke-opacity:1;stroke-miterlimit:10;"
       d="M 1243.203125 5291.992188 L 5531.992188 5291.992188 "
       transform="matrix(0.1,0,0,-0.1,-57,579)"
       id="path2" />
    <path
       style="fill:none;stroke-width:10;stroke-linecap:butt;stroke-linejoin:round;stroke:rgb(0%,0%,0%);stroke-opacity:1;stroke-miterlimit:10;"
       d="M 1243.203125 5210.390625 L 1243.203125 5291.992188 "
       transform="matrix(0.1,0,0,-0.1,-57,579)"
       id="path4" />
    <path
       style="fill:none;stroke-width:11.6667;stroke-linecap:butt;stroke-linejoin:round;stroke:rgb(0%,0%,0%);stroke-opacity:1;stroke-miterlimit:10;"
       d="M 1236.015625 5481.601562 L 1221.601562 5476.796875 L 1211.992188 5460 L 1204.804688 5433.59375 L 1204.804688 5419.21875 L 1211.992188 5392.8125 L 1221.601562 5376.015625 L 1236.015625 5371.210938 L 1248.007812 5371.210938 L 1262.382812 5376.015625 L 1274.414062 5392.8125 L 1279.21875 5419.21875 L 1279.21875 5433.59375 L 1274.414062 5460 L 1262.382812 5476.796875 L 1248.007812 5481.601562 L 1236.015625 5481.601562 L 1226.40625 5476.796875 L 1221.601562 5471.992188 L 1216.796875 5460 L 1211.992188 5433.59375 L 1211.992188 5419.21875 L 1216.796875 5392.8125 L 1221.601562 5383.203125 L 1226.40625 5376.015625 L 1236.015625 5371.210938 M 1248.007812 5371.210938 L 1257.617188 5376.015625 L 1262.382812 5383.203125 L 1267.1875 5392.8125 L 1274.414062 5419.21875 L 1274.414062 5433.59375 L 1267.1875 5460 L 1262.382812 5471.992188 L 1257.617188 5476.796875 L 1248.007812 5481.601562 "
       transform="matrix(0.1,0,0,-0.1,-57,579)"
       id="path6" />
    <path
       style="fill:none;stroke-width:11.6667;stroke-linecap:butt;stroke-linejoin:round;stroke:rgb(0%,0%,0%);stroke-opacity:1;stroke-miterlimit:10;"
       d="M 1348.789062 5210.390625 L 1348.789062 5291.992188 "
       transform="matrix(0.1,0,0,-0.1,-57,579)"
       id="path8" />
    <path
       style="fill:none;stroke-width:11.6667;stroke-linecap:butt;stroke-linejoin:round;stroke:rgb(0%,0%,0%);stroke-opacity:1;stroke-miterlimit:10;"
       d="M 1329.609375 5460 L 1339.21875 5464.804688 L 1353.59375 5481.601562 L 1353.59375 5371.210938 M 1348.789062 5476.796875 L 1348.789062 5371.210938 M 1329.609375 5371.210938 L 1375.195312 5371.210938 "
       transform="matrix(0.1,0,0,-0.1,-57,579)"
       id="path10" />
    <path
       style="fill:none;stroke-width:11.6667;stroke-linecap:butt;stroke-linejoin:round;stroke:rgb(0%,0%,0%);stroke-opacity:1;stroke-miterlimit:10;"
       d="M 1466.40625 5210.390625 L 1466.40625 5291.992188 "
       transform="matrix(0.1,0,0,-0.1,-57,579)"
       id="path12" />
    <path
       style="fill:none;stroke-width:11.6667;stroke-linecap:butt;stroke-linejoin:round;stroke:rgb(0%,0%,0%);stroke-opacity:1;stroke-miterlimit:10;"
       d="M 1435.195312 5460 L 1440 5455.195312 L 1435.195312 5450.390625 L 1430.390625 5455.195312 L 1430.390625 5460 L 1435.195312 5471.992188 L 1440 5476.796875 L 1454.414062 5481.601562 L 1476.015625 5481.601562 L 1492.8125 5476.796875 L 1497.617188 5471.992188 L 1502.382812 5460 L 1502.382812 5450.390625 L 1497.617188 5440.78125 L 1480.78125 5428.789062 L 1454.414062 5419.21875 L 1444.804688 5414.414062 L 1435.195312 5402.382812 L 1430.390625 5388.007812 L 1430.390625 5371.210938 M 1476.015625 5481.601562 L 1485.585938 5476.796875 L 1492.8125 5471.992188 L 1497.617188 5460 L 1497.617188 5450.390625 L 1492.8125 5440.78125 L 1476.015625 5428.789062 L 1454.414062 5419.21875 M 1430.390625 5383.203125 L 1435.195312 5388.007812 L 1444.804688 5388.007812 L 1471.210938 5376.015625 L 1485.585938 5376.015625 L 1497.617188 5383.203125 L 1502.382812 5388.007812 M 1444.804688 5388.007812 L 1471.210938 5371.210938 L 1492.8125 5371.210938 L 1497.617188 5376.015625 L 1502.382812 5388.007812 L 1502.382812 5397.617188 "
       transform="matrix(0.1,0,0,-0.1,-57,579)"
       id="path14" />
    <path
       style="fill:none;stroke-width:11.6667;stroke-linecap:butt;stroke-linejoin:round;stroke:rgb(0%,0%,0%);stroke-opacity:1;stroke-miterlimit:10;"
       d="M 1593.59375 5210.390625 L 1593.59375 5291.992188 "
       transform="matrix(0.1,0,0,-0.1,-57,579)"
       id="path16" />
    <path
       style="fill:none;stroke-width:11.6667;stroke-linecap:butt;stroke-linejoin:round;stroke:rgb(0%,0%,0%);stroke-opacity:1;stroke-miterlimit:10;"
       d="M 1562.382812 5460 L 1567.1875 5455.195312 L 1562.382812 5450.390625 L 1557.617188 5455.195312 L 1557.617188 5460 L 1562.382812 5471.992188 L 1567.1875 5476.796875 L 1583.984375 5481.601562 L 1603.203125 5481.601562 L 1620 5476.796875 L 1624.804688 5464.804688 L 1624.804688 5450.390625 L 1620 5440.78125 L 1603.203125 5433.59375 L 1588.789062 5433.59375 M 1603.203125 5481.601562 L 1615.195312 5476.796875 L 1620 5464.804688 L 1620 5450.390625 L 1615.195312 5440.78125 L 1603.203125 5433.59375 L 1615.195312 5428.789062 L 1624.804688 5419.21875 L 1629.609375 5407.1875 L 1629.609375 5392.8125 L 1624.804688 5383.203125 L 1620 5376.015625 L 1603.203125 5371.210938 L 1583.984375 5371.210938 L 1567.1875 5376.015625 L 1562.382812 5383.203125 L 1557.617188 5392.8125 L 1557.617188 5397.617188 L 1562.382812 5402.382812 L 1567.1875 5397.617188 L 1562.382812 5392.8125 M 1620 5423.984375 L 1624.804688 5407.1875 L 1624.804688 5392.8125 L 1620 5383.203125 L 1615.195312 5376.015625 L 1603.203125 5371.210938 "
       transform="matrix(0.1,0,0,-0.1,-57,579)"
       id="path18" />
    <path
       style="fill:none;stroke-width:11.6667;stroke-linecap:butt;stroke-linejoin:round;stroke:rgb(0%,0%,0%);stroke-opacity:1;stroke-miterlimit:10;"
       d="M 1732.8125 5210.390625 L 1732.8125 5291.992188 "
       transform="matrix(0.1,0,0,-0.1,-57,579)"
       id="path20" />
    <path
       style="fill:none;stroke-width:11.6667;stroke-linecap:butt;stroke-linejoin:round;stroke:rgb(0%,0%,0%);stroke-opacity:1;stroke-miterlimit:10;"
       d="M 1744.804688 5471.992188 L 1744.804688 5371.210938 M 1749.609375 5481.601562 L 1749.609375 5371.210938 M 1749.609375 5481.601562 L 1691.992188 5402.382812 L 1776.015625 5402.382812 M 1728.007812 5371.210938 L 1763.984375 5371.210938 "
       transform="matrix(0.1,0,0,-0.1,-57,579)"
       id="path22" />
    <path
       style="fill:none;stroke-width:11.6667;stroke-linecap:butt;stroke-linejoin:round;stroke:rgb(0%,0%,0%);stroke-opacity:1;stroke-miterlimit:10;"
       d="M 1888.789062 5210.390625 L 1888.789062 5291.992188 "
       transform="matrix(0.1,0,0,-0.1,-57,579)"
       id="path24" />
    <path
       style="fill:none;stroke-width:11.6667;stroke-linecap:butt;stroke-linejoin:round;stroke:rgb(0%,0%,0%);stroke-opacity:1;stroke-miterlimit:10;"
       d="M 1864.804688 5481.601562 L 1852.8125 5428.789062 L 1864.804688 5440.78125 L 1879.21875 5445.585938 L 1896.015625 5445.585938 L 1910.390625 5440.78125 L 1920 5428.789062 L 1927.1875 5414.414062 L 1927.1875 5402.382812 L 1920 5388.007812 L 1910.390625 5376.015625 L 1896.015625 5371.210938 L 1879.21875 5371.210938 L 1864.804688 5376.015625 L 1857.617188 5383.203125 L 1852.8125 5392.8125 L 1852.8125 5397.617188 L 1857.617188 5402.382812 L 1864.804688 5397.617188 L 1857.617188 5392.8125 M 1896.015625 5445.585938 L 1905.585938 5440.78125 L 1915.195312 5428.789062 L 1920 5414.414062 L 1920 5402.382812 L 1915.195312 5388.007812 L 1905.585938 5376.015625 L 1896.015625 5371.210938 M 1864.804688 5481.601562 L 1915.195312 5481.601562 M 1864.804688 5476.796875 L 1888.789062 5476.796875 L 1915.195312 5481.601562 "
       transform="matrix(0.1,0,0,-0.1,-57,579)"
       id="path26" />
    <path
       style="fill:none;stroke-width:11.6667;stroke-linecap:butt;stroke-linejoin:round;stroke:rgb(0%,0%,0%);stroke-opacity:1;stroke-miterlimit:10;"
       d="M 2066.40625 5210.390625 L 2066.40625 5291.992188 "
       transform="matrix(0.1,0,0,-0.1,-57,579)"
       id="path28" />
    <path
       style="fill:none;stroke-width:11.6667;stroke-linecap:butt;stroke-linejoin:round;stroke:rgb(0%,0%,0%);stroke-opacity:1;stroke-miterlimit:10;"
       d="M 2092.8125 5464.804688 L 2088.007812 5460 L 2092.8125 5455.195312 L 2097.617188 5460 L 2097.617188 5464.804688 L 2092.8125 5476.796875 L 2083.203125 5481.601562 L 2066.40625 5481.601562 L 2049.609375 5476.796875 L 2040 5464.804688 L 2035.195312 5455.195312 L 2030.390625 5433.59375 L 2030.390625 5402.382812 L 2035.195312 5388.007812 L 2044.804688 5376.015625 L 2061.601562 5371.210938 L 2071.210938 5371.210938 L 2088.007812 5376.015625 L 2097.617188 5388.007812 L 2102.382812 5402.382812 L 2102.382812 5407.1875 L 2097.617188 5423.984375 L 2088.007812 5433.59375 L 2071.210938 5440.78125 L 2066.40625 5440.78125 L 2049.609375 5433.59375 L 2040 5423.984375 L 2035.195312 5407.1875 M 2066.40625 5481.601562 L 2056.796875 5476.796875 L 2044.804688 5464.804688 L 2040 5455.195312 L 2035.195312 5433.59375 L 2035.195312 5402.382812 L 2040 5388.007812 L 2049.609375 5376.015625 L 2061.601562 5371.210938 M 2071.210938 5371.210938 L 2083.203125 5376.015625 L 2092.8125 5388.007812 L 2097.617188 5402.382812 L 2097.617188 5407.1875 L 2092.8125 5423.984375 L 2083.203125 5433.59375 L 2071.210938 5440.78125 "
       transform="matrix(0.1,0,0,-0.1,-57,579)"
       id="path30" />
    <path
       style="fill:none;stroke-width:11.6667;stroke-linecap:butt;stroke-linejoin:round;stroke:rgb(0%,0%,0%);stroke-opacity:1;stroke-miterlimit:10;"
       d="M 2268.007812 5210.390625 L 2268.007812 5291.992188 "
       transform="matrix(0.1,0,0,-0.1,-57,579)"
       id="path32" />
    <path
       style="fill:none;stroke-width:11.6667;stroke-linecap:butt;stroke-linejoin:round;stroke:rgb(0%,0%,0%);stroke-opacity:1;stroke-miterlimit:10;"
       d="M 2231.992188 5481.601562 L 2231.992188 5450.390625 M 2231.992188 5460 L 2236.796875 5471.992188 L 2248.789062 5481.601562 L 2258.398438 5481.601562 L 2284.804688 5464.804688 L 2294.414062 5464.804688 L 2299.21875 5471.992188 L 2303.984375 5481.601562 M 2236.796875 5471.992188 L 2248.789062 5476.796875 L 2258.398438 5476.796875 L 2284.804688 5464.804688 M 2303.984375 5481.601562 L 2303.984375 5464.804688 L 2299.21875 5450.390625 L 2280 5423.984375 L 2275.195312 5414.414062 L 2268.007812 5397.617188 L 2268.007812 5371.210938 M 2299.21875 5450.390625 L 2275.195312 5423.984375 L 2268.007812 5414.414062 L 2263.203125 5397.617188 L 2263.203125 5371.210938 "
       transform="matrix(0.1,0,0,-0.1,-57,579)"
       id="path34" />
    <path
       style="fill:none;stroke-width:11.6667;stroke-linecap:butt;stroke-linejoin:round;stroke:rgb(0%,0%,0%);stroke-opacity:1;stroke-miterlimit:10;"
       d="M 2505.585938 5210.390625 L 2505.585938 5291.992188 "
       transform="matrix(0.1,0,0,-0.1,-57,579)"
       id="path36" />
    <path
       style="fill:none;stroke-width:11.6667;stroke-linecap:butt;stroke-linejoin:round;stroke:rgb(0%,0%,0%);stroke-opacity:1;stroke-miterlimit:10;"
       d="M 2496.015625 5481.601562 L 2481.601562 5476.796875 L 2474.414062 5464.804688 L 2474.414062 5450.390625 L 2481.601562 5440.78125 L 2496.015625 5433.59375 L 2517.617188 5433.59375 L 2531.992188 5440.78125 L 2536.796875 5450.390625 L 2536.796875 5464.804688 L 2531.992188 5476.796875 L 2517.617188 5481.601562 L 2496.015625 5481.601562 L 2486.40625 5476.796875 L 2481.601562 5464.804688 L 2481.601562 5450.390625 L 2486.40625 5440.78125 L 2496.015625 5433.59375 M 2517.617188 5433.59375 L 2527.1875 5440.78125 L 2531.992188 5450.390625 L 2531.992188 5464.804688 L 2527.1875 5476.796875 L 2517.617188 5481.601562 M 2496.015625 5433.59375 L 2481.601562 5428.789062 L 2474.414062 5423.984375 L 2469.609375 5414.414062 L 2469.609375 5392.8125 L 2474.414062 5383.203125 L 2481.601562 5376.015625 L 2496.015625 5371.210938 L 2517.617188 5371.210938 L 2531.992188 5376.015625 L 2536.796875 5383.203125 L 2541.601562 5392.8125 L 2541.601562 5414.414062 L 2536.796875 5423.984375 L 2531.992188 5428.789062 L 2517.617188 5433.59375 M 2496.015625 5433.59375 L 2486.40625 5428.789062 L 2481.601562 5423.984375 L 2474.414062 5414.414062 L 2474.414062 5392.8125 L 2481.601562 5383.203125 L 2486.40625 5376.015625 L 2496.015625 5371.210938 M 2517.617188 5371.210938 L 2527.1875 5376.015625 L 2531.992188 5383.203125 L 2536.796875 5392.8125 L 2536.796875 5414.414062 L 2531.992188 5423.984375 L 2527.1875 5428.789062 L 2517.617188 5433.59375 "
       transform="matrix(0.1,0,0,-0.1,-57,579)"
       id="path38" />
    <path
       style="fill:none;stroke-width:11.6667;stroke-linecap:butt;stroke-linejoin:round;stroke:rgb(0%,0%,0%);stroke-opacity:1;stroke-miterlimit:10;"
       d="M 2793.59375 5210.390625 L 2793.59375 5291.992188 "
       transform="matrix(0.1,0,0,-0.1,-57,579)"
       id="path40" />
    <path
       style="fill:none;stroke-width:11.6667;stroke-linecap:butt;stroke-linejoin:round;stroke:rgb(0%,0%,0%);stroke-opacity:1;stroke-miterlimit:10;"
       d="M 2824.804688 5445.585938 L 2820 5428.789062 L 2810.390625 5419.21875 L 2793.59375 5414.414062 L 2788.789062 5414.414062 L 2774.414062 5419.21875 L 2762.382812 5428.789062 L 2757.617188 5445.585938 L 2757.617188 5450.390625 L 2762.382812 5464.804688 L 2774.414062 5476.796875 L 2788.789062 5481.601562 L 2798.398438 5481.601562 L 2815.195312 5476.796875 L 2824.804688 5464.804688 L 2829.609375 5450.390625 L 2829.609375 5419.21875 L 2824.804688 5397.617188 L 2820 5388.007812 L 2810.390625 5376.015625 L 2793.59375 5371.210938 L 2779.21875 5371.210938 L 2767.1875 5376.015625 L 2762.382812 5388.007812 L 2762.382812 5392.8125 L 2767.1875 5397.617188 L 2774.414062 5392.8125 "
       transform="matrix(0.1,0,0,-0.1,-57,579)"
       id="path42" />
    <path
       style="fill:none;stroke-width:11.6667;stroke-linecap:butt;stroke-linejoin:round;stroke:rgb(0%,0%,0%);stroke-opacity:1;stroke-miterlimit:10;"
       d="M 2774.414062 5392.8125 L 2767.1875 5388.007812 M 2788.789062 5414.414062 L 2779.21875 5419.21875 L 2767.1875 5428.789062 L 2762.382812 5445.585938 L 2762.382812 5450.390625 L 2767.1875 5464.804688 L 2779.21875 5476.796875 L 2788.789062 5481.601562 M 2798.398438 5481.601562 L 2810.390625 5476.796875 L 2820 5464.804688 L 2824.804688 5450.390625 L 2824.804688 5419.21875 L 2820 5397.617188 L 2815.195312 5388.007812 L 2805.585938 5376.015625 L 2793.59375 5371.210938 "
       transform="matrix(0.1,0,0,-0.1,-57,579)"
       id="path44" />
    <path
       style="fill:none;stroke-width:11.6667;stroke-linecap:butt;stroke-linejoin:round;stroke:rgb(0%,0%,0%);stroke-opacity:1;stroke-miterlimit:10;"
       d="M 3158.398438 5210.390625 L 3158.398438 5291.992188 "
       transform="matrix(0.1,0,0,-0.1,-57,579)"
       id="path46" />
    <path
       style="fill:none;stroke-width:11.6667;stroke-linecap:butt;stroke-linejoin:round;stroke:rgb(0%,0%,0%);stroke-opacity:1;stroke-miterlimit:10;"
       d="M 3086.40625 5460 L 3096.015625 5464.804688 L 3110.390625 5481.601562 L 3110.390625 5371.210938 M 3105.585938 5476.796875 L 3105.585938 5371.210938 M 3086.40625 5371.210938 L 3131.992188 5371.210938 M 3203.984375 5481.601562 L 3189.609375 5476.796875 L 3180 5460 L 3172.8125 5433.59375 L 3172.8125 5419.21875 L 3180 5392.8125 L 3189.609375 5376.015625 L 3203.984375 5371.210938 L 3216.015625 5371.210938 L 3230.390625 5376.015625 L 3242.382812 5392.8125 L 3247.1875 5419.21875 L 3247.1875 5433.59375 L 3242.382812 5460 L 3230.390625 5476.796875 L 3216.015625 5481.601562 L 3203.984375 5481.601562 L 3194.414062 5476.796875 L 3189.609375 5471.992188 L 3184.804688 5460 L 3180 5433.59375 L 3180 5419.21875 L 3184.804688 5392.8125 L 3189.609375 5383.203125 L 3194.414062 5376.015625 L 3203.984375 5371.210938 M 3216.015625 5371.210938 L 3225.585938 5376.015625 L 3230.390625 5383.203125 L 3235.195312 5392.8125 L 3242.382812 5419.21875 L 3242.382812 5433.59375 L 3235.195312 5460 L 3230.390625 5471.992188 L 3225.585938 5476.796875 L 3216.015625 5481.601562 "
       transform="matrix(0.1,0,0,-0.1,-57,579)"
       id="path48" />
    <path
       style="fill:none;stroke-width:11.6667;stroke-linecap:butt;stroke-linejoin:round;stroke:rgb(0%,0%,0%);stroke-opacity:1;stroke-miterlimit:10;"
       d="M 3655.195312 5210.390625 L 3655.195312 5291.992188 "
       transform="matrix(0.1,0,0,-0.1,-57,579)"
       id="path50" />
    <path
       style="fill:none;stroke-width:11.6667;stroke-linecap:butt;stroke-linejoin:round;stroke:rgb(0%,0%,0%);stroke-opacity:1;stroke-miterlimit:10;"
       d="M 3583.203125 5460 L 3592.8125 5464.804688 L 3609.609375 5481.601562 L 3609.609375 5371.210938 M 3602.382812 5476.796875 L 3602.382812 5371.210938 M 3583.203125 5371.210938 L 3628.789062 5371.210938 M 3686.40625 5460 L 3696.015625 5464.804688 L 3712.8125 5481.601562 L 3712.8125 5371.210938 M 3708.007812 5476.796875 L 3708.007812 5371.210938 M 3686.40625 5371.210938 L 3734.414062 5371.210938 "
       transform="matrix(0.1,0,0,-0.1,-57,579)"
       id="path52" />
    <path
       style="fill:none;stroke-width:11.6667;stroke-linecap:butt;stroke-linejoin:round;stroke:rgb(0%,0%,0%);stroke-opacity:1;stroke-miterlimit:10;"
       d="M 4442.382812 5210.390625 L 4442.382812 5291.992188 "
       transform="matrix(0.1,0,0,-0.1,-57,579)"
       id="path54" />
    <path
       style="fill:none;stroke-width:11.6667;stroke-linecap:butt;stroke-linejoin:round;stroke:rgb(0%,0%,0%);stroke-opacity:1;stroke-miterlimit:10;"
       d="M 4370.390625 5460 L 4380 5464.804688 L 4396.796875 5481.601562 L 4396.796875 5371.210938 M 4391.992188 5476.796875 L 4391.992188 5371.210938 M 4370.390625 5371.210938 L 4416.015625 5371.210938 M 4463.984375 5460 L 4468.789062 5455.195312 L 4463.984375 5450.390625 L 4459.21875 5455.195312 L 4459.21875 5460 L 4463.984375 5471.992188 L 4468.789062 5476.796875 L 4483.203125 5481.601562 L 4504.804688 5481.601562 L 4521.601562 5476.796875 L 4526.40625 5471.992188 L 4531.210938 5460 L 4531.210938 5450.390625 L 4526.40625 5440.78125 L 4509.609375 5428.789062 L 4483.203125 5419.21875 L 4473.59375 5414.414062 L 4463.984375 5402.382812 L 4459.21875 5388.007812 L 4459.21875 5371.210938 M 4504.804688 5481.601562 L 4514.414062 5476.796875 L 4521.601562 5471.992188 L 4526.40625 5460 L 4526.40625 5450.390625 L 4521.601562 5440.78125 L 4504.804688 5428.789062 L 4483.203125 5419.21875 M 4459.21875 5383.203125 L 4463.984375 5388.007812 L 4473.59375 5388.007812 L 4500 5376.015625 L 4514.414062 5376.015625 L 4526.40625 5383.203125 L 4531.210938 5388.007812 M 4473.59375 5388.007812 L 4500 5371.210938 L 4521.601562 5371.210938 L 4526.40625 5376.015625 L 4531.210938 5388.007812 L 4531.210938 5397.617188 "
       transform="matrix(0.1,0,0,-0.1,-57,579)"
       id="path56" />
    <path
       style="fill:none;stroke-width:11.6667;stroke-linecap:butt;stroke-linejoin:round;stroke:rgb(0%,0%,0%);stroke-opacity:1;stroke-miterlimit:10;"
       d="M 2503.203125 5704.804688 L 2503.203125 5596.796875 M 2508.007812 5704.804688 L 2508.007812 5596.796875 M 2486.40625 5704.804688 L 2508.007812 5704.804688 M 2486.40625 5596.796875 L 2522.382812 5596.796875 M 2580 5668.789062 L 2565.585938 5663.984375 L 2553.59375 5654.414062 L 2548.789062 5637.617188 L 2548.789062 5628.007812 L 2553.59375 5613.59375 L 2565.585938 5601.601562 L 2580 5596.796875 L 2589.609375 5596.796875 L 2606.40625 5601.601562 L 2616.015625 5613.59375 L 2620.78125 5628.007812 L 2620.78125 5637.617188 L 2616.015625 5654.414062 L 2606.40625 5663.984375 L 2589.609375 5668.789062 L 2580 5668.789062 L 2570.390625 5663.984375 L 2558.398438 5654.414062 L 2553.59375 5637.617188 L 2553.59375 5628.007812 L 2558.398438 5613.59375 L 2570.390625 5601.601562 L 2580 5596.796875 M 2589.609375 5596.796875 L 2601.601562 5601.601562 L 2611.210938 5613.59375 L 2616.015625 5628.007812 L 2616.015625 5637.617188 L 2611.210938 5654.414062 L 2601.601562 5663.984375 L 2589.609375 5668.789062 M 2683.203125 5668.789062 L 2668.789062 5663.984375 L 2659.21875 5654.414062 L 2651.992188 5637.617188 L 2651.992188 5628.007812 L 2659.21875 5613.59375 L 2668.789062 5601.601562 L 2683.203125 5596.796875 L 2695.195312 5596.796875 L 2709.609375 5601.601562 L 2721.601562 5613.59375 L 2726.40625 5628.007812 L 2726.40625 5637.617188 L 2721.601562 5654.414062 L 2709.609375 5663.984375 L 2695.195312 5668.789062 L 2683.203125 5668.789062 L 2673.59375 5663.984375 L 2663.984375 5654.414062 L 2659.21875 5637.617188 L 2659.21875 5628.007812 L 2663.984375 5613.59375 L 2673.59375 5601.601562 L 2683.203125 5596.796875 M 2695.195312 5596.796875 L 2704.804688 5601.601562 L 2714.414062 5613.59375 L 2721.601562 5628.007812 L 2721.601562 5637.617188 L 2714.414062 5654.414062 L 2704.804688 5663.984375 L 2695.195312 5668.789062 M 2767.1875 5704.804688 L 2767.1875 5596.796875 M 2771.992188 5704.804688 L 2771.992188 5596.796875 M 2824.804688 5668.789062 L 2771.992188 5618.398438 M 2798.398438 5637.617188 L 2829.609375 5596.796875 M 2793.59375 5637.617188 L 2824.804688 5596.796875 M 2752.8125 5704.804688 L 2771.992188 5704.804688 M 2808.007812 5668.789062 L 2839.21875 5668.789062 M 2752.8125 5596.796875 L 2788.789062 5596.796875 M 2808.007812 5596.796875 L 2839.21875 5596.796875 M 2877.617188 5704.804688 L 2877.617188 5596.796875 M 2882.382812 5704.804688 L 2882.382812 5596.796875 M 2882.382812 5654.414062 L 2891.992188 5663.984375 L 2901.601562 5668.789062 L 2913.59375 5668.789062 L 2928.007812 5663.984375 L 2940 5654.414062 L 2944.804688 5637.617188 L 2944.804688 5628.007812 L 2940 5613.59375 L 2928.007812 5601.601562 L 2913.59375 5596.796875 L 2901.601562 5596.796875 L 2891.992188 5601.601562 L 2882.382812 5613.59375 M 2913.59375 5668.789062 L 2923.203125 5663.984375 L 2932.8125 5654.414062 L 2940 5637.617188 L 2940 5628.007812 L 2932.8125 5613.59375 L 2923.203125 5601.601562 L 2913.59375 5596.796875 M 2860.78125 5704.804688 L 2882.382812 5704.804688 M 2985.585938 5659.21875 L 2985.585938 5654.414062 L 2980.78125 5654.414062 L 2980.78125 5659.21875 L 2985.585938 5663.984375 L 2995.195312 5668.789062 L 3016.796875 5668.789062 L 3026.40625 5663.984375 L 3031.210938 5659.21875 L 3038.398438 5649.609375 L 3038.398438 5613.59375 L 3043.203125 5601.601562 L 3048.007812 5596.796875 M 3031.210938 5659.21875 L 3031.210938 5613.59375 L 3038.398438 5601.601562 L 3048.007812 5596.796875 L 3052.8125 5596.796875 M 3031.210938 5649.609375 L 3026.40625 5644.804688 L 2995.195312 5637.617188 L 2980.78125 5632.8125 L 2976.015625 5623.203125 L 2976.015625 5613.59375 L 2980.78125 5601.601562 L 2995.195312 5596.796875 L 3011.992188 5596.796875 L 3021.601562 5601.601562 L 3031.210938 5613.59375 M 2995.195312 5637.617188 L 2985.585938 5632.8125 L 2980.78125 5623.203125 L 2980.78125 5613.59375 L 2985.585938 5601.601562 L 2995.195312 5596.796875 M 3141.601562 5654.414062 L 3136.796875 5649.609375 L 3141.601562 5644.804688 L 3146.40625 5649.609375 L 3146.40625 5654.414062 L 3136.796875 5663.984375 L 3124.804688 5668.789062 L 3110.390625 5668.789062 L 3096.015625 5663.984375 L 3083.984375 5654.414062 L 3079.21875 5637.617188 L 3079.21875 5628.007812 L 3083.984375 5613.59375 L 3096.015625 5601.601562 L 3110.390625 5596.796875 L 3120 5596.796875 L 3136.796875 5601.601562 L 3146.40625 5613.59375 M 3110.390625 5668.789062 L 3100.78125 5663.984375 L 3088.789062 5654.414062 L 3083.984375 5637.617188 L 3083.984375 5628.007812 L 3088.789062 5613.59375 L 3100.78125 5601.601562 L 3110.390625 5596.796875 M 3187.1875 5704.804688 L 3187.1875 5596.796875 M 3194.414062 5704.804688 L 3194.414062 5596.796875 M 3244.804688 5668.789062 L 3194.414062 5618.398438 M 3218.398438 5637.617188 L 3249.609375 5596.796875 M 3213.59375 5637.617188 L 3244.804688 5596.796875 M 3172.8125 5704.804688 L 3194.414062 5704.804688 M 3230.390625 5668.789062 L 3261.601562 5668.789062 M 3172.8125 5596.796875 L 3208.789062 5596.796875 M 3230.390625 5596.796875 L 3261.601562 5596.796875 M 3381.601562 5704.804688 L 3381.601562 5618.398438 L 3386.40625 5601.601562 L 3396.015625 5596.796875 L 3405.585938 5596.796875 L 3417.617188 5601.601562 L 3422.382812 5613.59375 M 3386.40625 5704.804688 L 3386.40625 5618.398438 L 3391.210938 5601.601562 L 3396.015625 5596.796875 M 3364.804688 5668.789062 L 3405.585938 5668.789062 M 3458.398438 5704.804688 L 3453.59375 5700 L 3458.398438 5695.195312 L 3463.203125 5700 L 3458.398438 5704.804688 M 3458.398438 5668.789062 L 3458.398438 5596.796875 M 3463.203125 5668.789062 L 3463.203125 5596.796875 M 3443.984375 5668.789062 L 3463.203125 5668.789062 M 3443.984375 5596.796875 L 3480 5596.796875 M 3516.015625 5668.789062 L 3516.015625 5596.796875 M 3520.78125 5668.789062 L 3520.78125 5596.796875 M 3520.78125 5654.414062 L 3530.390625 5663.984375 L 3547.1875 5668.789062 L 3556.796875 5668.789062 L 3573.59375 5663.984375 L 3578.398438 5654.414062 L 3578.398438 5596.796875 M 3556.796875 5668.789062 L 3566.40625 5663.984375 L 3573.59375 5654.414062 L 3573.59375 5596.796875 M 3578.398438 5654.414062 L 3588.007812 5663.984375 "
       transform="matrix(0.1,0,0,-0.1,-57,579)"
       id="path58" />
    <path
       style="fill:none;stroke-width:11.6667;stroke-linecap:butt;stroke-linejoin:round;stroke:rgb(0%,0%,0%);stroke-opacity:1;stroke-miterlimit:10;"
       d="M 3588.007812 5663.984375 L 3604.804688 5668.789062 L 3614.414062 5668.789062 L 3628.789062 5663.984375 L 3636.015625 5654.414062 L 3636.015625 5596.796875 M 3614.414062 5668.789062 L 3623.984375 5663.984375 L 3628.789062 5654.414062 L 3628.789062 5596.796875 M 3499.21875 5668.789062 L 3520.78125 5668.789062 M 3499.21875 5596.796875 L 3535.195312 5596.796875 M 3556.796875 5596.796875 L 3592.8125 5596.796875 M 3614.414062 5596.796875 L 3650.390625 5596.796875 M 3681.601562 5637.617188 L 3743.984375 5637.617188 L 3743.984375 5649.609375 L 3739.21875 5659.21875 L 3734.414062 5663.984375 L 3722.382812 5668.789062 L 3708.007812 5668.789062 L 3691.210938 5663.984375 L 3681.601562 5654.414062 L 3676.796875 5637.617188 L 3676.796875 5628.007812 L 3681.601562 5613.59375 L 3691.210938 5601.601562 L 3708.007812 5596.796875 L 3717.617188 5596.796875 L 3734.414062 5601.601562 L 3743.984375 5613.59375 M 3739.21875 5637.617188 L 3739.21875 5654.414062 L 3734.414062 5663.984375 M 3708.007812 5668.789062 L 3698.398438 5663.984375 L 3686.40625 5654.414062 L 3681.601562 5637.617188 L 3681.601562 5628.007812 L 3686.40625 5613.59375 L 3698.398438 5601.601562 L 3708.007812 5596.796875 M 3863.984375 5726.40625 L 3863.984375 5560.78125 M 3868.789062 5726.40625 L 3868.789062 5560.78125 M 3863.984375 5726.40625 L 3900 5726.40625 M 3863.984375 5560.78125 L 3900 5560.78125 M 4003.203125 5690.390625 L 4008.007812 5673.59375 L 4008.007812 5704.804688 L 4003.203125 5690.390625 L 3993.59375 5700 L 3976.796875 5704.804688 L 3967.1875 5704.804688 L 3952.8125 5700 L 3940.78125 5690.390625 L 3936.015625 5680.78125 L 3931.210938 5663.984375 L 3931.210938 5637.617188 L 3936.015625 5623.203125 L 3940.78125 5613.59375 L 3952.8125 5601.601562 L 3967.1875 5596.796875 L 3976.796875 5596.796875 L 3993.59375 5601.601562 L 4003.203125 5613.59375 M 3967.1875 5704.804688 L 3957.617188 5700 L 3945.585938 5690.390625 L 3940.78125 5680.78125 L 3936.015625 5663.984375 L 3936.015625 5637.617188 L 3940.78125 5623.203125 L 3945.585938 5613.59375 L 3957.617188 5601.601562 L 3967.1875 5596.796875 M 4003.203125 5637.617188 L 4003.203125 5596.796875 M 4008.007812 5637.617188 L 4008.007812 5596.796875 M 3988.789062 5637.617188 L 4024.804688 5637.617188 M 4056.015625 5668.789062 L 4087.1875 5596.796875 M 4060.78125 5668.789062 L 4087.1875 5606.40625 M 4118.398438 5668.789062 L 4087.1875 5596.796875 L 4077.617188 5575.195312 L 4065.585938 5565.585938 L 4056.015625 5560.78125 L 4051.210938 5560.78125 L 4046.40625 5565.585938 L 4051.210938 5570.390625 L 4056.015625 5565.585938 M 4046.40625 5668.789062 L 4077.617188 5668.789062 M 4096.796875 5668.789062 L 4128.007812 5668.789062 M 4159.21875 5668.789062 L 4159.21875 5596.796875 M 4163.984375 5668.789062 L 4163.984375 5596.796875 M 4163.984375 5637.617188 L 4171.210938 5654.414062 L 4180.78125 5663.984375 L 4190.390625 5668.789062 L 4207.1875 5668.789062 L 4211.992188 5663.984375 L 4211.992188 5659.21875 L 4207.1875 5654.414062 L 4202.382812 5659.21875 L 4207.1875 5663.984375 M 4144.804688 5668.789062 L 4163.984375 5668.789062 M 4144.804688 5596.796875 L 4180.78125 5596.796875 M 4269.609375 5726.40625 L 4269.609375 5560.78125 M 4274.414062 5726.40625 L 4274.414062 5560.78125 M 4238.398438 5726.40625 L 4274.414062 5726.40625 M 4238.398438 5560.78125 L 4274.414062 5560.78125 "
       transform="matrix(0.1,0,0,-0.1,-57,579)"
       id="path60" />
    <path
       style="fill:none;stroke-width:11.6667;stroke-linecap:butt;stroke-linejoin:round;stroke:rgb(0%,0%,0%);stroke-opacity:1;stroke-miterlimit:10;"
       d="M 1243.203125 2577.617188 L 5531.992188 2577.617188 L 5531.992188 5291.992188 L 1243.203125 5291.992188 L 1243.203125 2577.617188 L 5531.992188 2577.617188 M 1243.203125 2577.617188 L 5531.992188 2577.617188 M 1243.203125 2577.617188 L 1243.203125 2688.007812 "
       transform="matrix(0.1,0,0,-0.1,-57,579)"
       id="path62" />
    <path
       style="fill:none;stroke-width:11.6667;stroke-linecap:butt;stroke-linejoin:round;stroke:rgb(0%,0%,0%);stroke-opacity:1;stroke-miterlimit:10;"
       d="M 1221.601562 2462.382812 L 1231.210938 2467.1875 L 1248.007812 2483.984375 L 1248.007812 2373.59375 M 1243.203125 2479.21875 L 1243.203125 2373.59375 M 1221.601562 2373.59375 L 1267.1875 2373.59375 "
       transform="matrix(0.1,0,0,-0.1,-57,579)"
       id="path64" />
    <path
       style="fill:none;stroke-width:11.6667;stroke-linecap:butt;stroke-linejoin:round;stroke:rgb(0%,0%,0%);stroke-opacity:1;stroke-miterlimit:10;"
       d="M 1243.203125 2577.617188 L 1243.203125 2688.007812 "
       transform="matrix(0.1,0,0,-0.1,-57,579)"
       id="path66" />
    <path
       style="fill:none;stroke-width:11.6667;stroke-linecap:butt;stroke-linejoin:round;stroke:rgb(0%,0%,0%);stroke-opacity:1;stroke-miterlimit:10;"
       d="M 1221.601562 2462.382812 L 1231.210938 2467.1875 L 1248.007812 2483.984375 L 1248.007812 2373.59375 M 1243.203125 2479.21875 L 1243.203125 2373.59375 M 1221.601562 2373.59375 L 1267.1875 2373.59375 "
       transform="matrix(0.1,0,0,-0.1,-57,579)"
       id="path68" />
    <path
       style="fill:none;stroke-width:11.6667;stroke-linecap:butt;stroke-linejoin:round;stroke:rgb(0%,0%,0%);stroke-opacity:1;stroke-miterlimit:10;"
       d="M 2563.203125 2577.617188 L 2563.203125 2688.007812 "
       transform="matrix(0.1,0,0,-0.1,-57,579)"
       id="path70" />
    <path
       style="fill:none;stroke-width:11.6667;stroke-linecap:butt;stroke-linejoin:round;stroke:rgb(0%,0%,0%);stroke-opacity:1;stroke-miterlimit:10;"
       d="M 2531.992188 2462.382812 L 2536.796875 2457.617188 L 2531.992188 2452.8125 L 2527.1875 2457.617188 L 2527.1875 2462.382812 L 2531.992188 2471.992188 L 2536.796875 2479.21875 L 2551.210938 2483.984375 L 2572.8125 2483.984375 L 2589.609375 2479.21875 L 2594.414062 2471.992188 L 2599.21875 2462.382812 L 2599.21875 2452.8125 L 2594.414062 2440.78125 L 2577.617188 2431.210938 L 2551.210938 2421.601562 L 2541.601562 2416.796875 L 2531.992188 2404.804688 L 2527.1875 2390.390625 L 2527.1875 2373.59375 M 2572.8125 2483.984375 L 2582.382812 2479.21875 L 2589.609375 2471.992188 L 2594.414062 2462.382812 L 2594.414062 2452.8125 L 2589.609375 2440.78125 L 2572.8125 2431.210938 L 2551.210938 2421.601562 M 2527.1875 2385.585938 L 2531.992188 2390.390625 L 2541.601562 2390.390625 L 2568.007812 2378.398438 L 2582.382812 2378.398438 L 2594.414062 2385.585938 L 2599.21875 2390.390625 M 2541.601562 2390.390625 L 2568.007812 2373.59375 L 2589.609375 2373.59375 L 2594.414062 2378.398438 L 2599.21875 2390.390625 L 2599.21875 2400 "
       transform="matrix(0.1,0,0,-0.1,-57,579)"
       id="path72" />
    <path
       style="fill:none;stroke-width:11.6667;stroke-linecap:butt;stroke-linejoin:round;stroke:rgb(0%,0%,0%);stroke-opacity:1;stroke-miterlimit:10;"
       d="M 3336.015625 2577.617188 L 3336.015625 2688.007812 "
       transform="matrix(0.1,0,0,-0.1,-57,579)"
       id="path74" />
    <path
       style="fill:none;stroke-width:11.6667;stroke-linecap:butt;stroke-linejoin:round;stroke:rgb(0%,0%,0%);stroke-opacity:1;stroke-miterlimit:10;"
       d="M 3304.804688 2462.382812 L 3309.609375 2457.617188 L 3304.804688 2452.8125 L 3297.617188 2457.617188 L 3297.617188 2462.382812 L 3304.804688 2471.992188 L 3309.609375 2479.21875 L 3323.984375 2483.984375 L 3345.585938 2483.984375 L 3360 2479.21875 L 3367.1875 2467.1875 L 3367.1875 2452.8125 L 3360 2440.78125 L 3345.585938 2436.015625 L 3328.789062 2436.015625 M 3345.585938 2483.984375 L 3355.195312 2479.21875 L 3360 2467.1875 L 3360 2452.8125 L 3355.195312 2440.78125 L 3345.585938 2436.015625 L 3355.195312 2431.210938 L 3367.1875 2421.601562 L 3371.992188 2409.609375 L 3371.992188 2395.195312 L 3367.1875 2385.585938 L 3360 2378.398438 L 3345.585938 2373.59375 L 3323.984375 2373.59375 L 3309.609375 2378.398438 L 3304.804688 2385.585938 L 3297.617188 2395.195312 L 3297.617188 2400 L 3304.804688 2404.804688 L 3309.609375 2400 L 3304.804688 2395.195312 M 3360 2426.40625 L 3367.1875 2409.609375 L 3367.1875 2395.195312 L 3360 2385.585938 L 3355.195312 2378.398438 L 3345.585938 2373.59375 "
       transform="matrix(0.1,0,0,-0.1,-57,579)"
       id="path76" />
    <path
       style="fill:none;stroke-width:11.6667;stroke-linecap:butt;stroke-linejoin:round;stroke:rgb(0%,0%,0%);stroke-opacity:1;stroke-miterlimit:10;"
       d="M 3883.203125 2577.617188 L 3883.203125 2688.007812 "
       transform="matrix(0.1,0,0,-0.1,-57,579)"
       id="path78" />
    <path
       style="fill:none;stroke-width:11.6667;stroke-linecap:butt;stroke-linejoin:round;stroke:rgb(0%,0%,0%);stroke-opacity:1;stroke-miterlimit:10;"
       d="M 3892.8125 2471.992188 L 3892.8125 2373.59375 M 3900 2483.984375 L 3900 2373.59375 M 3900 2483.984375 L 3842.382812 2404.804688 L 3923.984375 2404.804688 M 3878.398438 2373.59375 L 3914.414062 2373.59375 "
       transform="matrix(0.1,0,0,-0.1,-57,579)"
       id="path80" />
    <path
       style="fill:none;stroke-width:11.6667;stroke-linecap:butt;stroke-linejoin:round;stroke:rgb(0%,0%,0%);stroke-opacity:1;stroke-miterlimit:10;"
       d="M 4308.007812 2577.617188 L 4308.007812 2688.007812 "
       transform="matrix(0.1,0,0,-0.1,-57,579)"
       id="path82" />
    <path
       style="fill:none;stroke-width:11.6667;stroke-linecap:butt;stroke-linejoin:round;stroke:rgb(0%,0%,0%);stroke-opacity:1;stroke-miterlimit:10;"
       d="M 4281.601562 2483.984375 L 4271.992188 2431.210938 L 4281.601562 2440.78125 L 4298.398438 2448.007812 L 4312.8125 2448.007812 L 4329.609375 2440.78125 L 4339.21875 2431.210938 L 4343.984375 2416.796875 L 4343.984375 2404.804688 L 4339.21875 2390.390625 L 4329.609375 2378.398438 L 4312.8125 2373.59375 L 4298.398438 2373.59375 L 4281.601562 2378.398438 L 4276.796875 2385.585938 L 4271.992188 2395.195312 L 4271.992188 2400 L 4276.796875 2404.804688 L 4281.601562 2400 L 4276.796875 2395.195312 M 4312.8125 2448.007812 L 4324.804688 2440.78125 L 4334.414062 2431.210938 L 4339.21875 2416.796875 L 4339.21875 2404.804688 L 4334.414062 2390.390625 L 4324.804688 2378.398438 L 4312.8125 2373.59375 M 4281.601562 2483.984375 L 4334.414062 2483.984375 M 4281.601562 2479.21875 L 4308.007812 2479.21875 L 4334.414062 2483.984375 "
       transform="matrix(0.1,0,0,-0.1,-57,579)"
       id="path84" />
    <path
       style="fill:none;stroke-width:11.6667;stroke-linecap:butt;stroke-linejoin:round;stroke:rgb(0%,0%,0%);stroke-opacity:1;stroke-miterlimit:10;"
       d="M 4656.015625 2577.617188 L 4656.015625 2688.007812 "
       transform="matrix(0.1,0,0,-0.1,-57,579)"
       id="path86" />
    <path
       style="fill:none;stroke-width:11.6667;stroke-linecap:butt;stroke-linejoin:round;stroke:rgb(0%,0%,0%);stroke-opacity:1;stroke-miterlimit:10;"
       d="M 4682.382812 2467.1875 L 4675.195312 2462.382812 L 4682.382812 2457.617188 L 4687.1875 2462.382812 L 4687.1875 2467.1875 L 4682.382812 2479.21875 L 4670.390625 2483.984375 L 4656.015625 2483.984375 L 4639.21875 2479.21875 L 4629.609375 2467.1875 L 4624.804688 2457.617188 L 4620 2436.015625 L 4620 2404.804688 L 4624.804688 2390.390625 L 4634.414062 2378.398438 L 4651.210938 2373.59375 L 4660.78125 2373.59375 L 4675.195312 2378.398438 L 4687.1875 2390.390625 L 4691.992188 2404.804688 L 4691.992188 2409.609375 L 4687.1875 2426.40625 L 4675.195312 2436.015625 L 4660.78125 2440.78125 L 4656.015625 2440.78125 L 4639.21875 2436.015625 L 4629.609375 2426.40625 L 4624.804688 2409.609375 M 4656.015625 2483.984375 L 4643.984375 2479.21875 L 4634.414062 2467.1875 L 4629.609375 2457.617188 L 4624.804688 2436.015625 L 4624.804688 2404.804688 L 4629.609375 2390.390625 L 4639.21875 2378.398438 L 4651.210938 2373.59375 M 4660.78125 2373.59375 L 4670.390625 2378.398438 L 4682.382812 2390.390625 L 4687.1875 2404.804688 L 4687.1875 2409.609375 L 4682.382812 2426.40625 L 4670.390625 2436.015625 L 4660.78125 2440.78125 "
       transform="matrix(0.1,0,0,-0.1,-57,579)"
       id="path88" />
    <path
       style="fill:none;stroke-width:11.6667;stroke-linecap:butt;stroke-linejoin:round;stroke:rgb(0%,0%,0%);stroke-opacity:1;stroke-miterlimit:10;"
       d="M 4948.789062 2577.617188 L 4948.789062 2688.007812 "
       transform="matrix(0.1,0,0,-0.1,-57,579)"
       id="path90" />
    <path
       style="fill:none;stroke-width:11.6667;stroke-linecap:butt;stroke-linejoin:round;stroke:rgb(0%,0%,0%);stroke-opacity:1;stroke-miterlimit:10;"
       d="M 4912.8125 2483.984375 L 4912.8125 2452.8125 M 4912.8125 2462.382812 L 4917.617188 2471.992188 L 4929.609375 2483.984375 L 4939.21875 2483.984375 L 4965.585938 2467.1875 L 4975.195312 2467.1875 L 4980 2471.992188 L 4984.804688 2483.984375 M 4917.617188 2471.992188 L 4929.609375 2479.21875 L 4939.21875 2479.21875 L 4965.585938 2467.1875 M 4984.804688 2483.984375 L 4984.804688 2467.1875 L 4980 2452.8125 L 4960.78125 2426.40625 L 4953.59375 2416.796875 L 4948.789062 2400 L 4948.789062 2373.59375 M 4980 2452.8125 L 4953.59375 2426.40625 L 4948.789062 2416.796875 L 4943.984375 2400 L 4943.984375 2373.59375 "
       transform="matrix(0.1,0,0,-0.1,-57,579)"
       id="path92" />
    <path
       style="fill:none;stroke-width:11.6667;stroke-linecap:butt;stroke-linejoin:round;stroke:rgb(0%,0%,0%);stroke-opacity:1;stroke-miterlimit:10;"
       d="M 5203.203125 2577.617188 L 5203.203125 2688.007812 "
       transform="matrix(0.1,0,0,-0.1,-57,579)"
       id="path94" />
    <path
       style="fill:none;stroke-width:11.6667;stroke-linecap:butt;stroke-linejoin:round;stroke:rgb(0%,0%,0%);stroke-opacity:1;stroke-miterlimit:10;"
       d="M 5193.59375 2483.984375 L 5176.796875 2479.21875 L 5171.992188 2467.1875 "
       transform="matrix(0.1,0,0,-0.1,-57,579)"
       id="path96" />
    <path
       style="fill:none;stroke-width:11.6667;stroke-linecap:butt;stroke-linejoin:round;stroke:rgb(0%,0%,0%);stroke-opacity:1;stroke-miterlimit:10;"
       d="M 5171.992188 2467.1875 L 5171.992188 2452.8125 L 5176.796875 2440.78125 L 5193.59375 2436.015625 L 5212.8125 2436.015625 L 5229.609375 2440.78125 L 5234.414062 2452.8125 L 5234.414062 2467.1875 L 5229.609375 2479.21875 L 5212.8125 2483.984375 L 5193.59375 2483.984375 L 5183.984375 2479.21875 L 5176.796875 2467.1875 L 5176.796875 2452.8125 L 5183.984375 2440.78125 L 5193.59375 2436.015625 M 5212.8125 2436.015625 L 5224.804688 2440.78125 L 5229.609375 2452.8125 L 5229.609375 2467.1875 L 5224.804688 2479.21875 L 5212.8125 2483.984375 M 5193.59375 2436.015625 L 5176.796875 2431.210938 L 5171.992188 2426.40625 L 5167.1875 2416.796875 L 5167.1875 2395.195312 L 5171.992188 2385.585938 L 5176.796875 2378.398438 L 5193.59375 2373.59375 L 5212.8125 2373.59375 L 5229.609375 2378.398438 L 5234.414062 2385.585938 L 5239.21875 2395.195312 L 5239.21875 2416.796875 L 5234.414062 2426.40625 L 5229.609375 2431.210938 L 5212.8125 2436.015625 M 5193.59375 2436.015625 L 5183.984375 2431.210938 L 5176.796875 2426.40625 L 5171.992188 2416.796875 L 5171.992188 2395.195312 L 5176.796875 2385.585938 L 5183.984375 2378.398438 L 5193.59375 2373.59375 M 5212.8125 2373.59375 L 5224.804688 2378.398438 L 5229.609375 2385.585938 L 5234.414062 2395.195312 L 5234.414062 2416.796875 L 5229.609375 2426.40625 L 5224.804688 2431.210938 L 5212.8125 2436.015625 "
       transform="matrix(0.1,0,0,-0.1,-57,579)"
       id="path98" />
    <path
       style="fill:none;stroke-width:11.6667;stroke-linecap:butt;stroke-linejoin:round;stroke:rgb(0%,0%,0%);stroke-opacity:1;stroke-miterlimit:10;"
       d="M 5428.789062 2577.617188 L 5428.789062 2688.007812 "
       transform="matrix(0.1,0,0,-0.1,-57,579)"
       id="path100" />
    <path
       style="fill:none;stroke-width:11.6667;stroke-linecap:butt;stroke-linejoin:round;stroke:rgb(0%,0%,0%);stroke-opacity:1;stroke-miterlimit:10;"
       d="M 5460 2448.007812 L 5452.8125 2431.210938 L 5443.203125 2421.601562 L 5428.789062 2416.796875 L 5423.984375 2416.796875 L 5407.1875 2421.601562 L 5397.617188 2431.210938 L 5392.8125 2448.007812 L 5392.8125 2452.8125 L 5397.617188 2467.1875 L 5407.1875 2479.21875 L 5423.984375 2483.984375 L 5433.59375 2483.984375 L 5448.007812 2479.21875 L 5460 2467.1875 L 5464.804688 2452.8125 L 5464.804688 2421.601562 L 5460 2400 L 5452.8125 2390.390625 L 5443.203125 2378.398438 L 5428.789062 2373.59375 L 5411.992188 2373.59375 L 5402.382812 2378.398438 L 5397.617188 2390.390625 L 5397.617188 2395.195312 L 5402.382812 2400 L 5407.1875 2395.195312 L 5402.382812 2390.390625 M 5423.984375 2416.796875 L 5411.992188 2421.601562 L 5402.382812 2431.210938 L 5397.617188 2448.007812 L 5397.617188 2452.8125 L 5402.382812 2467.1875 L 5411.992188 2479.21875 L 5423.984375 2483.984375 M 5433.59375 2483.984375 L 5443.203125 2479.21875 L 5452.8125 2467.1875 L 5460 2452.8125 L 5460 2421.601562 L 5452.8125 2400 L 5448.007812 2390.390625 L 5438.398438 2378.398438 L 5428.789062 2373.59375 "
       transform="matrix(0.1,0,0,-0.1,-57,579)"
       id="path102" />
    <path
       style="fill:none;stroke-width:11.6667;stroke-linecap:butt;stroke-linejoin:round;stroke:rgb(0%,0%,0%);stroke-opacity:1;stroke-miterlimit:10;"
       d="M 1243.203125 5291.992188 L 5531.992188 5291.992188 M 1243.203125 2577.617188 L 1243.203125 5291.992188 "
       transform="matrix(0.1,0,0,-0.1,-57,579)"
       id="path104" />
    <path
       style="fill:none;stroke-width:11.6667;stroke-linecap:butt;stroke-linejoin:round;stroke:rgb(0%,0%,0%);stroke-opacity:1;stroke-miterlimit:10;"
       d="M 1243.203125 2671.210938 L 1298.398438 2671.210938 M 1243.203125 2858.398438 L 1298.398438 2858.398438 M 1243.203125 3045.585938 L 1353.59375 3045.585938 "
       transform="matrix(0.1,0,0,-0.1,-57,579)"
       id="path106" />
    <path
       style="fill:none;stroke-width:11.6667;stroke-linecap:butt;stroke-linejoin:round;stroke:rgb(0%,0%,0%);stroke-opacity:1;stroke-miterlimit:10;"
       d="M 928.789062 3038.398438 L 1022.382812 3038.398438 M 1065.585938 3079.21875 L 1070.390625 3074.414062 L 1065.585938 3069.609375 L 1058.398438 3074.414062 L 1058.398438 3079.21875 L 1065.585938 3088.789062 L 1070.390625 3096.015625 L 1084.804688 3100.78125 L 1106.40625 3100.78125 L 1120.78125 3096.015625 L 1128.007812 3088.789062 L 1132.8125 3079.21875 L 1132.8125 3069.609375 L 1128.007812 3057.617188 L 1111.210938 3048.007812 L 1084.804688 3038.398438 L 1075.195312 3033.59375 L 1065.585938 3021.601562 L 1058.398438 3007.1875 L 1058.398438 2990.390625 M 1106.40625 3100.78125 L 1116.015625 3096.015625 L 1120.78125 3088.789062 L 1128.007812 3079.21875 L 1128.007812 3069.609375 L 1120.78125 3057.617188 L 1106.40625 3048.007812 L 1084.804688 3038.398438 M 1058.398438 3002.382812 L 1065.585938 3007.1875 L 1075.195312 3007.1875 L 1101.601562 2995.195312 L 1116.015625 2995.195312 L 1128.007812 3002.382812 L 1132.8125 3007.1875 M 1075.195312 3007.1875 L 1101.601562 2990.390625 L 1120.78125 2990.390625 L 1128.007812 2995.195312 L 1132.8125 3007.1875 L 1132.8125 3016.796875 "
       transform="matrix(0.1,0,0,-0.1,-57,579)"
       id="path108" />
    <path
       style="fill:none;stroke-width:11.6667;stroke-linecap:butt;stroke-linejoin:round;stroke:rgb(0%,0%,0%);stroke-opacity:1;stroke-miterlimit:10;"
       d="M 1243.203125 3232.8125 L 1298.398438 3232.8125 M 1243.203125 3420 L 1298.398438 3420 M 1243.203125 3607.1875 L 1298.398438 3607.1875 M 1243.203125 3794.414062 L 1298.398438 3794.414062 M 1243.203125 3981.601562 L 1353.59375 3981.601562 "
       transform="matrix(0.1,0,0,-0.1,-57,579)"
       id="path110" />
    <path
       style="fill:none;stroke-width:11.6667;stroke-linecap:butt;stroke-linejoin:round;stroke:rgb(0%,0%,0%);stroke-opacity:1;stroke-miterlimit:10;"
       d="M 928.789062 3974.414062 L 1022.382812 3974.414062 M 1075.195312 4015.195312 L 1084.804688 4020 L 1101.601562 4036.796875 L 1101.601562 3926.40625 M 1096.796875 4029.609375 L 1096.796875 3926.40625 M 1075.195312 3926.40625 L 1120.78125 3926.40625 "
       transform="matrix(0.1,0,0,-0.1,-57,579)"
       id="path112" />
    <path
       style="fill:none;stroke-width:11.6667;stroke-linecap:butt;stroke-linejoin:round;stroke:rgb(0%,0%,0%);stroke-opacity:1;stroke-miterlimit:10;"
       d="M 1243.203125 4168.789062 L 1298.398438 4168.789062 M 1243.203125 4356.015625 L 1298.398438 4356.015625 M 1243.203125 4543.203125 L 1298.398438 4543.203125 M 1243.203125 4730.390625 L 1298.398438 4730.390625 M 1243.203125 4917.617188 L 1353.59375 4917.617188 "
       transform="matrix(0.1,0,0,-0.1,-57,579)"
       id="path114" />
    <path
       style="fill:none;stroke-width:11.6667;stroke-linecap:butt;stroke-linejoin:round;stroke:rgb(0%,0%,0%);stroke-opacity:1;stroke-miterlimit:10;"
       d="M 1089.609375 4970.390625 L 1075.195312 4965.585938 L 1065.585938 4951.210938 L 1058.398438 4924.804688 L 1058.398438 4908.007812 L 1065.585938 4883.984375 L 1075.195312 4867.1875 L 1089.609375 4862.382812 L 1101.601562 4862.382812 L 1116.015625 4867.1875 L 1128.007812 4883.984375 L 1132.8125 4908.007812 L 1132.8125 4924.804688 L 1128.007812 4951.210938 L 1116.015625 4965.585938 L 1101.601562 4970.390625 L 1089.609375 4970.390625 L 1080 4965.585938 L 1075.195312 4960.78125 L 1070.390625 4951.210938 L 1065.585938 4924.804688 L 1065.585938 4908.007812 L 1070.390625 4883.984375 L 1075.195312 4871.992188 L 1080 4867.1875 L 1089.609375 4862.382812 M 1101.601562 4862.382812 L 1111.210938 4867.1875 L 1116.015625 4871.992188 L 1120.78125 4883.984375 L 1128.007812 4908.007812 L 1128.007812 4924.804688 L 1120.78125 4951.210938 L 1116.015625 4960.78125 L 1111.210938 4965.585938 L 1101.601562 4970.390625 "
       transform="matrix(0.1,0,0,-0.1,-57,579)"
       id="path116" />
    <path
       style="fill:none;stroke-width:11.6667;stroke-linecap:butt;stroke-linejoin:round;stroke:rgb(0%,0%,0%);stroke-opacity:1;stroke-miterlimit:10;"
       d="M 1243.203125 5104.804688 L 1298.398438 5104.804688 M 1243.203125 5291.992188 L 1298.398438 5291.992188 M 5531.992188 2577.617188 L 5531.992188 5291.992188 "
       transform="matrix(0.1,0,0,-0.1,-57,579)"
       id="path118" />
    <path
       style="fill:none;stroke-width:11.6667;stroke-linecap:butt;stroke-linejoin:round;stroke:rgb(0%,0%,0%);stroke-opacity:1;stroke-miterlimit:10;"
       d="M 5531.992188 2671.210938 L 5476.796875 2671.210938 M 5531.992188 2858.398438 L 5476.796875 2858.398438 M 5531.992188 3045.585938 L 5419.21875 3045.585938 M 5531.992188 3232.8125 L 5476.796875 3232.8125 M 5531.992188 3420 L 5476.796875 3420 M 5531.992188 3607.1875 L 5476.796875 3607.1875 M 5531.992188 3794.414062 L 5476.796875 3794.414062 M 5531.992188 3981.601562 L 5419.21875 3981.601562 M 5531.992188 4168.789062 L 5476.796875 4168.789062 M 5531.992188 4356.015625 L 5476.796875 4356.015625 M 5531.992188 4543.203125 L 5476.796875 4543.203125 M 5531.992188 4730.390625 L 5476.796875 4730.390625 M 5531.992188 4917.617188 L 5419.21875 4917.617188 M 5531.992188 5104.804688 L 5476.796875 5104.804688 M 5531.992188 5291.992188 L 5476.796875 5291.992188 "
       transform="matrix(0.1,0,0,-0.1,-57,579)"
       id="path120" />
    <path
       style="fill:none;stroke-width:11.6667;stroke-linecap:butt;stroke-linejoin:round;stroke:rgb(0%,0%,0%);stroke-opacity:1;stroke-miterlimit:10;"
       d="M 3412.8125 2280 L 3355.195312 2208.007812 M 3417.617188 2280 L 3360 2208.007812 M 3360 2280 L 3355.195312 2258.398438 L 3355.195312 2280 L 3417.617188 2280 M 3355.195312 2208.007812 L 3417.617188 2208.007812 L 3417.617188 2227.1875 L 3412.8125 2208.007812 "
       transform="matrix(0.1,0,0,-0.1,-57,579)"
       id="path122" />
    <path
       style="fill:none;stroke-width:11.6667;stroke-linecap:butt;stroke-linejoin:round;stroke:rgb(0%,0%,0%);stroke-opacity:1;stroke-miterlimit:10;"
       d="M 655.195312 3019.21875 L 765.585938 3019.21875 M 655.195312 3023.984375 L 765.585938 3023.984375 M 655.195312 3002.382812 L 655.195312 3023.984375 M 765.585938 3002.382812 L 765.585938 3038.398438 M 691.210938 3096.015625 L 696.015625 3081.601562 L 708.007812 3069.609375 L 722.382812 3064.804688 L 731.992188 3064.804688 L 748.789062 3069.609375 L 758.398438 3081.601562 L 765.585938 3096.015625 L 765.585938 3105.585938 L 758.398438 3122.382812 L 748.789062 3131.992188 L 731.992188 3136.796875 L 722.382812 3136.796875 L 708.007812 3131.992188 L 696.015625 3122.382812 L 691.210938 3105.585938 L 691.210938 3096.015625 L 696.015625 3086.40625 L 708.007812 3074.414062 L 722.382812 3069.609375 L 731.992188 3069.609375 L 748.789062 3074.414062 L 758.398438 3086.40625 L 765.585938 3096.015625 M 765.585938 3105.585938 L 758.398438 3117.617188 L 748.789062 3127.1875 L 731.992188 3131.992188 L 722.382812 3131.992188 L 708.007812 3127.1875 L 696.015625 3117.617188 L 691.210938 3105.585938 M 691.210938 3194.414062 L 696.015625 3184.804688 L 700.820312 3180 L 712.8125 3175.195312 L 722.382812 3175.195312 L 731.992188 3180 L 739.179688 3184.804688 L 743.984375 3194.414062 L 743.984375 3206.40625 L 739.179688 3216.015625 L 731.992188 3220.78125 L 722.382812 3225.585938 L 712.8125 3225.585938 L 700.820312 3220.78125 L 696.015625 3216.015625 L 691.210938 3206.40625 L 691.210938 3194.414062 M 696.015625 3184.804688 L 708.007812 3180 L 727.1875 3180 L 739.179688 3184.804688 M 739.179688 3216.015625 L 727.1875 3220.78125 L 708.007812 3220.78125 L 696.015625 3216.015625 M 700.820312 3220.78125 L 696.015625 3225.585938 L 691.210938 3237.617188 L 696.015625 3237.617188 L 696.015625 3225.585938 M 731.992188 3180 L 739.179688 3175.195312 L 748.789062 3168.007812 L 753.59375 3168.007812 L 765.585938 3175.195312 L 770.390625 3189.609375 L 770.390625 3216.015625 L 775.195312 3230.390625 L 780 3237.617188 M 753.59375 3168.007812 L 758.398438 3175.195312 L 765.585938 3189.609375 L 765.585938 3216.015625 L 770.390625 3230.390625 L 780 3237.617188 L 784.804688 3237.617188 L 794.414062 3230.390625 L 801.601562 3216.015625 L 801.601562 3184.804688 L 794.414062 3168.007812 L 784.804688 3163.203125 L 780 3163.203125 L 770.390625 3168.007812 L 765.585938 3184.804688 M 655.195312 3393.59375 L 765.585938 3393.59375 M 655.195312 3398.398438 L 765.585938 3398.398438 M 691.210938 3345.585938 L 686.40625 3350.390625 L 691.210938 3362.382812 L 712.8125 3367.1875 L 722.382812 3371.992188 L 727.1875 3376.796875 "
       transform="matrix(0.1,0,0,-0.1,-57,579)"
       id="path124" />
    <path
       style="fill:none;stroke-width:11.6667;stroke-linecap:butt;stroke-linejoin:round;stroke:rgb(0%,0%,0%);stroke-opacity:1;stroke-miterlimit:10;"
       d="M 727.1875 3376.796875 L 731.992188 3386.40625 M 686.40625 3350.390625 L 691.210938 3355.195312 L 712.8125 3362.382812 L 722.382812 3367.1875 L 727.1875 3371.992188 L 731.992188 3386.40625 L 731.992188 3403.203125 L 727.1875 3417.617188 L 722.382812 3424.804688 L 712.8125 3429.609375 L 691.210938 3434.414062 L 686.40625 3439.21875 M 731.992188 3403.203125 L 727.1875 3412.8125 L 722.382812 3417.617188 L 712.8125 3424.804688 L 691.210938 3429.609375 L 686.40625 3439.21875 L 691.210938 3443.984375 M 655.195312 3376.796875 L 655.195312 3412.8125 M 765.585938 3376.796875 L 765.585938 3412.8125 "
       transform="matrix(0.1,0,0,-0.1,-57,579)"
       id="path126" />
    <path
       style="fill:none;stroke-width:11.6667;stroke-linecap:butt;stroke-linejoin:round;stroke:rgb(0%,0%,0%);stroke-opacity:1;stroke-miterlimit:10;"
       d="M 633.59375 3559.21875 L 801.601562 3559.21875 M 633.59375 3563.984375 L 801.601562 3563.984375 M 633.59375 3559.21875 L 633.59375 3595.195312 M 801.601562 3559.21875 L 801.601562 3595.195312 M 655.195312 3636.015625 L 765.585938 3636.015625 M 655.195312 3640.78125 L 748.789062 3671.992188 M 655.195312 3636.015625 L 765.585938 3671.992188 M 655.195312 3710.390625 L 765.585938 3671.992188 M 655.195312 3710.390625 L 765.585938 3710.390625 M 655.195312 3715.195312 L 765.585938 3715.195312 M 655.195312 3621.601562 L 655.195312 3640.78125 M 655.195312 3710.390625 L 655.195312 3729.609375 M 765.585938 3621.601562 L 765.585938 3652.8125 M 765.585938 3693.59375 L 765.585938 3729.609375 M 748.789062 3777.617188 L 751.210938 3768.007812 L 758.398438 3758.398438 L 777.617188 3748.789062 L 787.1875 3748.789062 L 794.414062 3753.59375 L 803.984375 3758.398438 L 811.210938 3768.007812 L 813.59375 3777.617188 L 813.59375 3787.1875 L 811.210938 3796.796875 L 803.984375 3806.40625 L 794.414062 3811.210938 L 787.1875 3816.015625 L 777.617188 3816.015625 L 758.398438 3806.40625 L 751.210938 3796.796875 L 748.789062 3787.1875 L 748.789062 3777.617188 M 777.617188 3780 L 780 3777.617188 L 782.382812 3777.617188 L 787.1875 3780 L 787.1875 3784.804688 L 782.382812 3787.1875 L 780 3787.1875 L 777.617188 3784.804688 L 777.617188 3780 M 780 3780 L 782.382812 3780 L 782.382812 3784.804688 L 780 3784.804688 L 780 3780 "
       transform="matrix(0.1,0,0,-0.1,-57,579)"
       id="path128" />
    <path
       style="fill:none;stroke-width:11.6667;stroke-linecap:butt;stroke-linejoin:round;stroke:rgb(0%,0%,0%);stroke-opacity:1;stroke-miterlimit:10;"
       d="M 691.210938 3928.789062 L 765.585938 3960 M 691.210938 3933.59375 L 753.59375 3960 M 691.210938 3991.210938 L 765.585938 3960 L 784.804688 3950.390625 L 794.414062 3938.398438 L 801.601562 3928.789062 L 801.601562 3923.984375 L 794.414062 3919.21875 L 789.609375 3923.984375 L 794.414062 3928.789062 M 691.210938 3919.21875 L 691.210938 3950.390625 M 691.210938 3969.609375 L 691.210938 4000.78125 M 691.210938 4031.992188 L 765.585938 4031.992188 M 691.210938 4036.796875 L 765.585938 4036.796875 M 722.382812 4036.796875 L 708.007812 4043.984375 L 696.015625 4053.59375 L 691.210938 4063.203125 L 691.210938 4080 L 696.015625 4084.804688 L 700.820312 4084.804688 L 708.007812 4080 L 700.820312 4075.195312 L 696.015625 4080 M 691.210938 4017.617188 L 691.210938 4036.796875 M 765.585938 4017.617188 L 765.585938 4053.59375 M 686.40625 4106.40625 L 686.40625 4163.984375 M 662.382812 4195.195312 L 657.617188 4200 L 648.007812 4209.609375 L 715.195312 4209.609375 M 652.8125 4207.1875 L 715.195312 4207.1875 M 715.195312 4195.195312 L 715.195312 4221.601562 "
       transform="matrix(0.1,0,0,-0.1,-57,579)"
       id="path130" />
    <path
       style="fill:none;stroke-width:11.6667;stroke-linecap:butt;stroke-linejoin:round;stroke:rgb(0%,0%,0%);stroke-opacity:1;stroke-miterlimit:10;"
       d="M 655.195312 4346.40625 L 765.585938 4346.40625 M 655.195312 4353.59375 L 748.789062 4384.804688 M 655.195312 4346.40625 L 765.585938 4384.804688 M 655.195312 4420.78125 L 765.585938 4384.804688 M 655.195312 4420.78125 L 765.585938 4420.78125 M 655.195312 4425.585938 L 765.585938 4425.585938 M 655.195312 4331.992188 L 655.195312 4353.59375 M 655.195312 4420.78125 L 655.195312 4440 M 765.585938 4331.992188 L 765.585938 4363.203125 M 765.585938 4403.984375 L 765.585938 4440 M 691.210938 4478.398438 L 801.601562 4478.398438 M 691.210938 4483.203125 L 801.601562 4483.203125 M 708.007812 4483.203125 L 696.015625 4492.8125 L 691.210938 4502.382812 L 691.210938 4514.414062 L 696.015625 4528.789062 L 708.007812 4538.398438 L 722.382812 4545.585938 L 731.992188 4545.585938 L 748.789062 4538.398438 L 758.398438 4528.789062 L 765.585938 4514.414062 L 765.585938 4502.382812 L 758.398438 4492.8125 L 748.789062 4483.203125 M 691.210938 4514.414062 L 696.015625 4523.984375 L 708.007812 4533.59375 L 722.382812 4538.398438 L 731.992188 4538.398438 L 748.789062 4533.59375 L 758.398438 4523.984375 L 765.585938 4514.414062 M 691.210938 4461.601562 L 691.210938 4483.203125 M 801.601562 4461.601562 L 801.601562 4497.617188 M 708.007812 4639.21875 L 712.8125 4631.992188 L 717.617188 4639.21875 L 712.8125 4643.984375 L 708.007812 4643.984375 L 696.015625 4631.992188 L 691.210938 4622.382812 L 691.210938 4608.007812 L 696.015625 4591.210938 L 708.007812 4581.601562 L 722.382812 4576.796875 L 731.992188 4576.796875 L 748.789062 4581.601562 L 758.398438 4591.210938 L 765.585938 4608.007812 L 765.585938 4617.617188 L 758.398438 4631.992188 L 748.789062 4643.984375 M 691.210938 4608.007812 L 696.015625 4596.015625 L 708.007812 4586.40625 L 722.382812 4581.601562 L 731.992188 4581.601562 L 748.789062 4586.40625 L 758.398438 4596.015625 L 765.585938 4608.007812 M 686.40625 4670.390625 L 686.40625 4728.007812 M 662.382812 4751.992188 L 664.804688 4756.796875 L 667.1875 4751.992188 L 664.804688 4749.609375 L 662.382812 4749.609375 L 655.195312 4751.992188 L 652.8125 4756.796875 L 648.007812 4763.984375 L 648.007812 4778.398438 L 652.8125 4788.007812 L 657.617188 4790.390625 L 667.1875 4790.390625 L 674.414062 4788.007812 L 676.796875 4778.398438 L 676.796875 4768.789062 M 648.007812 4778.398438 L 657.617188 4788.007812 L 667.1875 4788.007812 L 674.414062 4783.203125 L 676.796875 4778.398438 L 679.179688 4783.203125 L 686.40625 4790.390625 L 693.59375 4792.8125 L 700.820312 4792.8125 L 708.007812 4790.390625 L 710.390625 4788.007812 L 715.195312 4778.398438 L 715.195312 4763.984375 L 710.390625 4756.796875 L 708.007812 4751.992188 L 700.820312 4749.609375 L 698.398438 4749.609375 L 696.015625 4751.992188 L 698.398438 4756.796875 L 700.820312 4751.992188 M 683.984375 4788.007812 L 693.59375 4790.390625 L 700.820312 4790.390625 L 708.007812 4788.007812 L 710.390625 4783.203125 L 715.195312 4778.398438 "
       transform="matrix(0.1,0,0,-0.1,-57,579)"
       id="path132" />
    <path
       style="fill:none;stroke-width:11.6667;stroke-linecap:butt;stroke-linejoin:round;stroke:rgb(0%,0%,0%);stroke-opacity:1;stroke-miterlimit:10;"
       d="M 633.59375 4850.390625 L 801.601562 4850.390625 M 633.59375 4855.195312 L 801.601562 4855.195312 M 633.59375 4819.21875 L 633.59375 4855.195312 M 801.601562 4819.21875 L 801.601562 4855.195312 "
       transform="matrix(0.1,0,0,-0.1,-57,579)"
       id="path134" />
    <path
       style="fill:none;stroke-width:15;stroke-linecap:butt;stroke-linejoin:round;stroke:rgb(49.804688%,49.804688%,49.804688%);stroke-opacity:1;stroke-miterlimit:10;"
       d="M 1423.203125 3112.8125 L 1588.789062 3206.40625 L 1742.382812 3292.8125 L 1883.984375 3371.992188 L 2013.59375 3443.984375 L 2138.398438 3511.210938 L 2253.59375 3571.210938 L 2361.601562 3626.40625 L 2464.804688 3676.796875 L 2563.203125 3722.382812 L 2656.796875 3760.78125 L 2743.203125 3796.796875 L 2829.609375 3825.585938 L 2908.789062 3849.609375 L 2988.007812 3866.40625 L 3062.382812 3880.78125 L 3134.414062 3890.390625 L 3203.984375 3895.195312 L 3271.210938 3895.195312 L 3336.015625 3892.8125 L 3398.398438 3885.585938 L 3458.398438 3876.015625 L 3516.015625 3863.984375 L 3573.59375 3849.609375 L 3628.789062 3835.195312 L 3681.601562 3816.015625 L 3734.414062 3796.796875 L 3784.804688 3777.617188 L 3835.195312 3758.398438 L 3931.210938 3715.195312 L 3976.796875 3693.59375 L 4020 3671.992188 L 4065.585938 3648.007812 L 4106.40625 3626.40625 L 4149.609375 3604.804688 L 4190.390625 3583.203125 L 4231.210938 3559.21875 L 4346.40625 3494.414062 L 4382.382812 3475.195312 L 4454.414062 3431.992188 L 4490.390625 3412.8125 L 4523.984375 3391.210938 L 4557.617188 3371.992188 L 4591.210938 3352.8125 L 4622.382812 3333.59375 L 4656.015625 3314.414062 L 4687.1875 3295.195312 L 4718.398438 3276.015625 L 4749.609375 3256.796875 L 4778.398438 3240 L 4807.1875 3220.78125 L 4836.015625 3203.984375 L 4922.382812 3153.59375 L 4975.195312 3120 L 5003.984375 3103.203125 L 5028.007812 3086.40625 L 5054.414062 3071.992188 L 5080.78125 3055.195312 L 5104.804688 3040.78125 L 5131.210938 3023.984375 L 5155.195312 3009.609375 L 5179.21875 2995.195312 L 5203.203125 2980.78125 L 5227.1875 2966.40625 L 5251.210938 2951.992188 L 5272.8125 2937.617188 L 5296.796875 2923.203125 L 5318.398438 2908.789062 L 5342.382812 2894.414062 L 5363.984375 2882.382812 L 5385.585938 2868.007812 L 5407.1875 2856.015625 L 5428.789062 2841.601562 "
       transform="matrix(0.1,0,0,-0.1,-57,579)"
       id="path136" />
    <path
       style="fill:none;stroke-width:15;stroke-linecap:butt;stroke-linejoin:round;stroke:rgb(100%,0%,0%);stroke-opacity:1;stroke-miterlimit:10;"
       d="M 1423.203125 5013.59375 L 1588.789062 4965.585938 L 1742.382812 4915.195312 L 1883.984375 4864.804688 L 2013.59375 4819.21875 L 2138.398438 4773.59375 L 2253.59375 4728.007812 L 2361.601562 4687.1875 L 2464.804688 4646.40625 L 2563.203125 4608.007812 L 2656.796875 4569.609375 L 2743.203125 4531.210938 L 2829.609375 4495.195312 L 2908.789062 4461.601562 L 2988.007812 4425.585938 L 3062.382812 4391.992188 L 3134.414062 4358.398438 L 3203.984375 4324.804688 L 3271.210938 4291.210938 L 3336.015625 4257.617188 L 3398.398438 4223.984375 L 3458.398438 4192.8125 L 3516.015625 4159.21875 "
       transform="matrix(0.1,0,0,-0.1,-57,579)"
       id="path138" />
    <path
       style="fill:none;stroke-width:15;stroke-linecap:butt;stroke-linejoin:round;stroke:rgb(100%,0%,0%);stroke-opacity:1;stroke-miterlimit:10;"
       d="M 3516.015625 4159.21875 L 3573.59375 4128.007812 L 3628.789062 4096.796875 L 3681.601562 4065.585938 L 3734.414062 4036.796875 L 3784.804688 4005.585938 L 3835.195312 3976.796875 L 3883.203125 3950.390625 L 3931.210938 3921.601562 L 3976.796875 3895.195312 L 4020 3868.789062 L 4065.585938 3844.804688 L 4106.40625 3818.398438 L 4149.609375 3794.414062 L 4190.390625 3770.390625 L 4231.210938 3748.789062 L 4269.609375 3724.804688 L 4346.40625 3681.601562 L 4382.382812 3660 L 4418.398438 3638.398438 L 4454.414062 3619.21875 L 4490.390625 3600 L 4523.984375 3580.78125 L 4557.617188 3561.601562 L 4591.210938 3542.382812 L 4622.382812 3523.203125 L 4656.015625 3506.40625 L 4687.1875 3487.1875 L 4749.609375 3453.59375 L 4807.1875 3420 L 4836.015625 3403.203125 L 4864.804688 3388.789062 L 4893.59375 3371.992188 L 4922.382812 3357.617188 L 4948.789062 3343.203125 L 4975.195312 3326.40625 L 5003.984375 3311.992188 L 5028.007812 3297.617188 L 5054.414062 3283.203125 L 5080.78125 3268.789062 L 5104.804688 3256.796875 L 5131.210938 3242.382812 L 5155.195312 3228.007812 L 5179.21875 3216.015625 L 5203.203125 3201.601562 L 5227.1875 3189.609375 L 5251.210938 3177.617188 L 5272.8125 3163.203125 L 5296.796875 3151.210938 L 5318.398438 3139.21875 L 5342.382812 3127.1875 L 5428.789062 3079.21875 "
       transform="matrix(0.1,0,0,-0.1,-57,579)"
       id="path140" />
    <path
       style="fill:none;stroke-width:15;stroke-linecap:butt;stroke-linejoin:round;stroke:rgb(18.041992%,54.492188%,34.104919%);stroke-opacity:1;stroke-miterlimit:10;"
       d="M 1423.203125 4732.8125 L 1588.789062 4737.617188 L 1742.382812 4740 L 1883.984375 4742.382812 L 2013.59375 4744.804688 L 2138.398438 4749.609375 L 2253.59375 4751.992188 L 2361.601562 4756.796875 L 2464.804688 4759.21875 L 2563.203125 4763.984375 L 2656.796875 4766.40625 L 2743.203125 4771.210938 L 2829.609375 4773.59375 L 2908.789062 4776.015625 L 2988.007812 4778.398438 L 3062.382812 4780.78125 L 3134.414062 4783.203125 L 3398.398438 4783.203125 L 3458.398438 4780.78125 L 3516.015625 4780.78125 L 3573.59375 4778.398438 L 3628.789062 4776.015625 L 3681.601562 4776.015625 L 3734.414062 4773.59375 L 3784.804688 4771.210938 L 3835.195312 4768.789062 L 3883.203125 4766.40625 L 3931.210938 4766.40625 L 3976.796875 4763.984375 L 4020 4761.601562 L 4065.585938 4759.21875 L 4106.40625 4759.21875 L 4149.609375 4756.796875 L 4190.390625 4754.414062 L 4231.210938 4754.414062 L 4269.609375 4751.992188 L 4308.007812 4751.992188 L 4346.40625 4749.609375 L 4382.382812 4749.609375 L 4418.398438 4747.1875 L 4490.390625 4747.1875 L 4523.984375 4744.804688 L 4591.210938 4744.804688 L 4622.382812 4742.382812 L 4718.398438 4742.382812 L 4749.609375 4740 L 4893.59375 4740 L 4922.382812 4737.617188 L 5080.78125 4737.617188 L 5104.804688 4735.195312 L 5385.585938 4735.195312 L 5407.1875 4732.8125 L 5428.789062 4732.8125 "
       transform="matrix(0.1,0,0,-0.1,-57,579)"
       id="path142" />
  </g>
  <text
     xml:space="preserve"
     style="font-style:normal;font-variant:normal;font-weight:normal;font-stretch:normal;font-size:22px;line-height:18.75px;font-family:RomanSerif;-inkscape-font-specification:RomanSerif;letter-spacing:0px;word-spacing:0px;fill:#000000;fill-opacity:1;stroke:none;stroke-width:0.75"
     x="115"
     y="234"
     id="text4663"><tspan
       sodipodi:role="line"
       id="tspan4661"
       x="115"
       y="234"
       style="stroke-width:0.75;fill:#000000;stroke:#000000">SFRs</tspan></text>
  <text
     xml:space="preserve"
     style="font-style:normal;font-variant:normal;font-weight:normal;font-stretch:normal;font-size:22px;line-height:18.75px;font-family:RomanSerif;-inkscape-font-specification:RomanSerif;letter-spacing:0px;word-spacing:0px;fill:#000000;fill-opacity:1;stroke:none;stroke-width:0.75"
     x="270"
     y="154"
     id="text4667"><tspan
       sodipodi:role="line"
       id="tspan4665"
       x="270"
       y="154"
       style="stroke-width:0.75;fill:#ff0000;stroke:#ff0000">Stars</tspan></text>
  <text
     xml:space="preserve"
     style="font-style:normal;font-variant:normal;font-weight:normal;font-stretch:normal;font-size:22px;line-height:18.75px;font-family:RomanSerif;-inkscape-font-specification:RomanSerif;letter-spacing:0px;word-spacing:0px;fill:#000000;fill-opacity:1;stroke:none;stroke-width:0.75"
     x="288.75"
     y="98.5"
     id="text4671"><tspan
       sodipodi:role="line"
       id="tspan4669"
       x="288.75"
       y="98.5"
       style="fill:#008000;stroke:#008000;stroke-width:0.75">Cold Gas</tspan></text>
</svg>
